<?xml version="1.0" encoding="utf-8"?>
<!-- Svg Vector Icons : http://www.onlinewebfonts.com/icon -->
<!DOCTYPE svg PUBLIC "-//W3C//DTD SVG 1.1//EN" "http://www.w3.org/Graphics/SVG/1.1/DTD/svg11.dtd">
<svg version="1.1" xmlns="http://www.w3.org/2000/svg" xmlns:xlink="http://www.w3.org/1999/xlink" x="0px" y="0px" viewBox="0 0 1000 1000" enable-background="new 0 0 1000 1000" xml:space="preserve">
<metadata> Svg Vector Icons : http://www.onlinewebfonts.com/icon </metadata>
<g><g transform="translate(0.000000,511.000000) scale(0.100000,-0.100000)"><path d="M1082.3,4987c-107.2-28.1-219.5-89.3-285.8-160.8c-130.1-140.4-173.5-390.5-97-576.8c28.1-66.4,645.7-699.3,2062.1-2115.7L4782.8,110L2761.6-1913.8C1345.2-3330.2,727.6-3963.1,699.5-4029.5c-76.6-186.3-33.2-436.4,97-576.8c30.6-33.2,102.1-86.8,158.2-114.8l102.1-56.2l4142-7.7l4139.5-5.1v535.9v535.9H5918.5c-1880.9,0-3419.8,7.7-3419.8,20.4c0,10.2,780.9,798.8,1738,1753.3C5196.3-984.9,5995.1-165.6,6023.1-114.6c63.8,125,63.8,324.1,0,449.2c-28.1,51-826.8,870.3-1786.4,1829.8c-957,954.5-1738,1743.1-1738,1753.3c0,12.8,1538.9,20.4,3419.8,20.4h3419.8v535.9V5010l-4088.4-2.6C2998.9,5004.9,1125.7,4997.2,1082.3,4987z"/></g></g>
</svg>